<svg width="381" height="187" viewBox="0 0 381 187" fill="none" xmlns="http://www.w3.org/2000/svg">
<path d="M38.65 4C37.8167 4.16666 37.2167 4.35 36.85 4.55C36.4833 4.71667 36.2333 4.98333 36.1 5.35C35.9667 5.68333 35.9 6.21666 35.9 6.95V31.4C35.9 32.1333 35.9667 32.6833 36.1 33.05C36.2333 33.3833 36.4833 33.65 36.85 33.85C37.2167 34.0167 37.8167 34.1833 38.65 34.35L41.2 34.9V36H23.7V34.9L26.3 34.35C27.1 34.1833 27.6833 34.0167 28.05 33.85C28.4167 33.65 28.6667 33.3833 28.8 33.05C28.9333 32.6833 29 32.1333 29 31.4V18.95H12.7V31.4C12.7 32.1333 12.7667 32.6833 12.9 33.05C13.0333 33.3833 13.2833 33.65 13.65 33.85C14.0167 34.0167 14.6167 34.1833 15.45 34.35L18 34.9V36H0.5V34.9L3.1 34.35C3.9 34.1833 4.48333 34.0167 4.85 33.85C5.21667 33.65 5.46667 33.3833 5.6 33.05C5.73333 32.6833 5.8 32.1333 5.8 31.4V6.95C5.8 6.21666 5.73333 5.68333 5.6 5.35C5.46667 4.98333 5.21667 4.71667 4.85 4.55C4.48333 4.35 3.9 4.16666 3.1 4L0.5 3.45V2.35H18V3.45L15.45 4C14.6167 4.16666 14.0167 4.35 13.65 4.55C13.2833 4.71667 13.0333 4.98333 12.9 5.35C12.7667 5.68333 12.7 6.21666 12.7 6.95V17.3H29V6.95C29 6.21666 28.9333 5.68333 28.8 5.35C28.6667 4.98333 28.4167 4.71667 28.05 4.55C27.6833 4.35 27.1 4.16666 26.3 4L23.7 3.45V2.35H41.2V3.45L38.65 4ZM56.3723 32.8C58.3723 32.8 60.339 31.95 62.2723 30.25L63.1223 31.05C60.5223 34.6167 57.4057 36.4 53.7723 36.4C51.6723 36.4 49.789 35.9167 48.1223 34.95C46.4557 33.95 45.1557 32.6 44.2223 30.9C43.289 29.1667 42.8223 27.2667 42.8223 25.2C42.8223 22.9333 43.3223 20.9167 44.3223 19.15C45.3223 17.35 46.689 15.95 48.4223 14.95C50.189 13.95 52.1723 13.45 54.3723 13.45C56.0723 13.45 57.589 13.85 58.9223 14.65C60.2557 15.45 61.289 16.5667 62.0223 18C62.7557 19.4 63.1223 20.9833 63.1223 22.75C63.1223 23.1167 63.0223 23.4167 62.8223 23.65C62.6223 23.8833 62.339 24 61.9723 24H49.1223V24.05C49.1223 26.7833 49.8057 28.9333 51.1723 30.5C52.5723 32.0333 54.3057 32.8 56.3723 32.8ZM54.0723 15C52.739 15 51.639 15.6333 50.7723 16.9C49.939 18.1667 49.4223 19.8833 49.2223 22.05L56.6723 21.75C57.139 21.75 57.3723 21.4 57.3723 20.7C57.3723 18.9667 57.0723 17.5833 56.4723 16.55C55.8723 15.5167 55.0723 15 54.0723 15ZM89.188 13.95V14.8L87.138 15.35C86.7047 15.4833 86.388 15.6333 86.188 15.8C85.988 15.9333 85.8213 16.1667 85.688 16.5L73.388 43.75C72.5213 45.7167 71.588 47.0833 70.588 47.85C69.6213 48.6167 68.588 49 67.488 49C66.388 49 65.5213 48.6667 64.888 48C64.288 47.3667 63.988 46.6167 63.988 45.75C63.988 44.85 64.2547 44.0667 64.788 43.4C65.3547 42.7667 66.0547 42.45 66.888 42.45C67.788 42.45 68.538 42.75 69.138 43.35C69.5713 43.7833 69.938 44 70.238 44C70.5047 44 70.738 43.8833 70.938 43.65C71.1713 43.4167 71.4047 43.05 71.638 42.55L74.788 35.45L66.738 16.2C66.6047 15.9 66.4213 15.6833 66.188 15.55C65.988 15.3833 65.6713 15.25 65.238 15.15L63.688 14.8V13.95H75.988V14.8L74.838 15.05C73.8047 15.35 73.288 15.8333 73.288 16.5C73.288 16.7 73.338 16.9333 73.438 17.2L77.938 28.85L83.188 16.75C83.3213 16.35 83.388 16.1167 83.388 16.05C83.388 15.6167 83.0213 15.3333 82.288 15.2L80.038 14.8V13.95H89.188ZM85.7006 42.55C87.1339 42.3167 88.2839 41.7333 89.1506 40.8C90.0506 39.8667 90.5006 38.7333 90.5006 37.4C90.5006 36.4333 90.1339 35.6167 89.4006 34.95C88.6672 34.25 87.6672 33.8 86.4006 33.6V32.05C87.2672 31.6167 87.9506 31.1167 88.4506 30.55C88.9839 29.95 89.5172 29.1333 90.0506 28.1C91.7172 28.6333 93.0339 29.4833 94.0006 30.65C94.9672 31.8167 95.4506 33.2 95.4506 34.8C95.4506 36.3667 95.0506 37.8333 94.2506 39.2C93.4506 40.6 92.3006 41.7333 90.8006 42.6C89.3339 43.5 87.6339 44.0167 85.7006 44.15V42.55ZM112.526 34.9L115.126 34.35C115.926 34.1833 116.509 34.0167 116.876 33.85C117.242 33.65 117.492 33.3833 117.626 33.05C117.759 32.6833 117.826 32.1333 117.826 31.4V6.95C117.826 6.21666 117.759 5.68333 117.626 5.35C117.492 4.98333 117.242 4.71667 116.876 4.55C116.509 4.35 115.926 4.16666 115.126 4L112.526 3.45V2.35H130.026V3.45L127.476 4C126.642 4.16666 126.042 4.35 125.676 4.55C125.309 4.71667 125.059 4.98333 124.926 5.35C124.792 5.68333 124.726 6.21666 124.726 6.95V31.4C124.726 32.1333 124.792 32.6833 124.926 33.05C125.059 33.3833 125.309 33.65 125.676 33.85C126.042 34.0167 126.642 34.1833 127.476 34.35L130.026 34.9V36H112.526V34.9ZM133.287 16C134.72 15.7667 135.87 15.1833 136.737 14.25C137.637 13.3167 138.087 12.1833 138.087 10.85C138.087 9.88333 137.72 9.06667 136.987 8.4C136.254 7.7 135.254 7.25 133.987 7.05V5.5C134.854 5.06667 135.537 4.56667 136.037 4C136.57 3.4 137.104 2.58333 137.637 1.55C139.304 2.08333 140.62 2.93333 141.587 4.1C142.554 5.26666 143.037 6.65 143.037 8.25C143.037 9.81667 142.637 11.3 141.837 12.7C141.037 14.0667 139.887 15.2 138.387 16.1C136.92 16.9667 135.22 17.4667 133.287 17.6V16ZM185.7 35.15V36H174V35.15L175.65 34.55C176.55 34.1833 177 33.5167 177 32.55V22.15C177 20.6833 176.65 19.55 175.95 18.75C175.25 17.95 174.266 17.55 173 17.55C171.733 17.55 170.733 17.9667 170 18.8C169.266 19.6333 168.9 20.75 168.9 22.15V32.9C168.9 33.3333 169.033 33.6833 169.3 33.95C169.566 34.2167 169.883 34.4167 170.25 34.55L171.9 35.15V36H160.2V35.15L161.8 34.55C162.7 34.1833 163.15 33.5167 163.15 32.55V22.15C163.15 20.6833 162.8 19.55 162.1 18.75C161.4 17.95 160.416 17.55 159.15 17.55C157.883 17.55 156.883 17.9667 156.15 18.8C155.45 19.6333 155.1 20.75 155.1 22.15V32.9C155.1 33.3333 155.233 33.6833 155.5 33.95C155.766 34.2167 156.083 34.4167 156.45 34.55L158.05 35.15V36H146.35V35.15L148 34.55C148.9 34.1833 149.35 33.5167 149.35 32.55V18.3C149.35 17.6333 149.233 17.1833 149 16.95C148.8 16.6833 148.466 16.5 148 16.4L146.35 16V15.1C148.75 14.7333 150.45 14.45 151.45 14.25C152.483 14.0167 153.65 13.6667 154.95 13.2L155.45 13.6C155.05 14.2667 154.816 15.4 154.75 17H155.05C157.05 16.0667 159.05 15 161.05 13.8C161.35 13.6 161.633 13.5 161.9 13.5C163.466 13.5 164.783 13.8 165.85 14.4C166.916 15 167.716 15.8667 168.25 17H168.85C170.816 16.1 172.833 15.0333 174.9 13.8C175.2 13.6 175.483 13.5 175.75 13.5C177.95 13.5 179.666 14.1 180.9 15.3C182.133 16.5 182.75 18.2167 182.75 20.45V32.9C182.75 33.3333 182.883 33.6833 183.15 33.95C183.416 34.2167 183.733 34.4167 184.1 34.55L185.7 35.15ZM237.723 34.9V36H220.273V34.9L222.823 34.35C224.256 34.05 224.973 33.5 224.973 32.7C224.973 32.4667 224.89 32.1 224.723 31.6L221.973 24.7H210.423L207.223 32.3C207.123 32.5 207.073 32.6833 207.073 32.85C207.073 33.5167 207.59 33.95 208.623 34.15L212.873 34.9V36H199.773V34.9L202.673 34.25C203.373 34.0833 203.923 33.85 204.323 33.55C204.756 33.2167 205.09 32.7833 205.323 32.25L215.523 8.05L213.973 4.25C214.94 4.21666 215.79 4.03333 216.523 3.7C217.256 3.33333 217.823 2.9 218.223 2.4C218.623 1.9 218.823 1.46667 218.823 1.1H219.473L232.573 32.8C232.74 33.2333 233.006 33.5667 233.373 33.8C233.74 34 234.34 34.1833 235.173 34.35L237.723 34.9ZM221.323 23.05L216.373 10.65L211.123 23.05H221.323ZM239.004 35.15L240.654 34.55C241.554 34.1833 242.004 33.5167 242.004 32.55V5.6C242.004 4.93333 241.888 4.48333 241.654 4.25C241.454 3.98333 241.121 3.8 240.654 3.7L239.004 3.3V2.4C241.138 2.1 242.821 1.83333 244.054 1.6C245.321 1.36666 246.621 0.999998 247.954 0.499998L248.454 0.899999C247.988 1.6 247.754 3.01666 247.754 5.15V32.9C247.754 33.3333 247.888 33.6833 248.154 33.95C248.421 34.2167 248.738 34.4167 249.104 34.55L250.704 35.15V36H239.004V35.15ZM265.189 32.8C267.189 32.8 269.156 31.95 271.089 30.25L271.939 31.05C269.339 34.6167 266.223 36.4 262.589 36.4C260.489 36.4 258.606 35.9167 256.939 34.95C255.273 33.95 253.973 32.6 253.039 30.9C252.106 29.1667 251.639 27.2667 251.639 25.2C251.639 22.9333 252.139 20.9167 253.139 19.15C254.139 17.35 255.506 15.95 257.239 14.95C259.006 13.95 260.989 13.45 263.189 13.45C264.889 13.45 266.406 13.85 267.739 14.65C269.073 15.45 270.106 16.5667 270.839 18C271.573 19.4 271.939 20.9833 271.939 22.75C271.939 23.1167 271.839 23.4167 271.639 23.65C271.439 23.8833 271.156 24 270.789 24H257.939V24.05C257.939 26.7833 258.623 28.9333 259.989 30.5C261.389 32.0333 263.123 32.8 265.189 32.8ZM262.889 15C261.556 15 260.456 15.6333 259.589 16.9C258.756 18.1667 258.239 19.8833 258.039 22.05L265.489 21.75C265.956 21.75 266.189 21.4 266.189 20.7C266.189 18.9667 265.889 17.5833 265.289 16.55C264.689 15.5167 263.889 15 262.889 15ZM297.117 35.15V36H284.067V35.15L285.167 34.9C286.333 34.6333 286.917 34.2167 286.917 33.65C286.917 33.3833 286.833 33.1333 286.667 32.9L282.717 26.85L278.517 33.1C278.217 33.5 278.067 33.8333 278.067 34.1C278.067 34.4 278.333 34.6 278.867 34.7L281.067 35.15V36H272.067V35.15L273.917 34.7C274.617 34.5 275.233 34.0833 275.767 33.45L281.517 25.5L275.667 16.2C275.467 15.9 275.25 15.6833 275.017 15.55C274.783 15.3833 274.483 15.25 274.117 15.15L272.567 14.8V13.95H285.467V14.8L283.917 15.2C283.083 15.4 282.667 15.75 282.667 16.25C282.667 16.35 282.733 16.5333 282.867 16.8L286.317 22.55L290.067 16.85C290.367 16.45 290.517 16.1167 290.517 15.85C290.517 15.55 290.25 15.35 289.717 15.25L287.517 14.8V13.95H296.217V14.8L294.617 15.25C293.75 15.4833 293.133 15.8833 292.767 16.45L287.367 24.05L293.767 33.5C294.267 34.2 294.867 34.6333 295.567 34.8L297.117 35.15ZM14 86.55C11.5 86.55 9.25 86.2667 7.25 85.7C5.28333 85.1 3.45 84.3667 1.75 83.5C2.01667 82.1 2.15 80.7333 2.15 79.4C2.15 77.5667 1.93333 75.8333 1.5 74.2H3.25C3.51667 77.4 4.58333 79.9833 6.45 81.95C8.35 83.9167 10.8833 84.9 14.05 84.9C15.7833 84.9 17.3333 84.4167 18.7 83.45C20.0667 82.45 20.75 80.9833 20.75 79.05C20.75 77.8167 20.4833 76.8 19.95 76C19.45 75.2 18.5667 74.4667 17.3 73.8C16.0333 73.1333 14.15 72.3667 11.65 71.5C8.41667 70.4 6.05 69.1167 4.55 67.65C3.05 66.1833 2.3 64.1833 2.3 61.65C2.3 59.8833 2.73333 58.2667 3.6 56.8C4.46667 55.3 5.75 54.1 7.45 53.2C9.15 52.3 11.1833 51.85 13.55 51.85C14.7167 51.85 15.7167 51.9667 16.55 52.2C17.3833 52.4333 18.1833 52.7333 18.95 53.1C19.1167 53.1667 19.3833 53.3 19.75 53.5C20.15 53.6667 20.4833 53.8 20.75 53.9C21.05 53.9667 21.3333 54 21.6 54L23.15 53.7L23.3 53.8C23.1667 54.4333 23.1 55.2667 23.1 56.3C23.1 58.0667 23.25 59.5667 23.55 60.8C23.85 62 24 62.6167 24 62.65H22.7C21.9 59.7833 20.6833 57.55 19.05 55.95C17.45 54.3167 15.5833 53.5 13.45 53.5C11.5833 53.5 10.0833 54.0667 8.95 55.2C7.85 56.3333 7.3 57.6667 7.3 59.2C7.3 60.4 7.51667 61.3667 7.95 62.1C8.38333 62.8 9.16667 63.45 10.3 64.05C11.4667 64.6167 13.2667 65.3 15.7 66.1C18.1667 66.9333 20.1 67.8167 21.5 68.75C22.9 69.65 23.9 70.7 24.5 71.9C25.1 73.0667 25.4 74.5 25.4 76.2C25.4 78.2667 24.9167 80.0833 23.95 81.65C23.0167 83.2167 21.6833 84.4333 19.95 85.3C18.25 86.1333 16.2667 86.55 14 86.55ZM28.1669 97.65L29.8169 97.05C30.3169 96.85 30.6669 96.6 30.8669 96.3C31.0669 96 31.1669 95.5833 31.1669 95.05V68.3C31.1669 67.6333 31.0502 67.1833 30.8169 66.95C30.6169 66.6833 30.2835 66.5 29.8169 66.4L28.1669 66V65.1C30.5669 64.7333 32.2669 64.45 33.2669 64.25C34.3002 64.0167 35.4669 63.6667 36.7669 63.2L37.2669 63.6C36.9002 64.1667 36.6669 65.15 36.5669 66.55H36.6669L40.8169 64.1C41.4835 63.7 42.1169 63.5 42.7169 63.5C45.0835 63.5 47.1002 64.0167 48.7669 65.05C50.4335 66.05 51.6835 67.4 52.5169 69.1C53.3502 70.7667 53.7669 72.5833 53.7669 74.55C53.7669 76.5833 53.3502 78.5167 52.5169 80.35C51.6835 82.15 50.4169 83.6167 48.7169 84.75C47.0502 85.8833 45.0169 86.45 42.6169 86.45C41.5502 86.45 40.5002 86.3333 39.4669 86.1C38.4669 85.8667 37.6169 85.5667 36.9169 85.2V95.4C36.9169 95.7667 37.0335 96.0833 37.2669 96.35C37.5335 96.6167 37.9335 96.85 38.4669 97.05L40.3669 97.65V98.5H28.1669V97.65ZM41.9669 84.7C43.7335 84.7 45.0835 83.9 46.0169 82.3C46.9835 80.7 47.4669 78.75 47.4669 76.45C47.4669 73.8167 46.9335 71.6 45.8669 69.8C44.8002 67.9667 43.2502 67.05 41.2169 67.05C39.9169 67.05 38.8669 67.4667 38.0669 68.3C37.2669 69.1333 36.8669 70.1667 36.8669 71.4V78.25C36.8669 79.3833 37.1002 80.45 37.5669 81.45C38.0335 82.45 38.6502 83.25 39.4169 83.85C40.2169 84.4167 41.0669 84.7 41.9669 84.7ZM69.8907 82.8C71.8907 82.8 73.8574 81.95 75.7907 80.25L76.6407 81.05C74.0407 84.6167 70.9241 86.4 67.2907 86.4C65.1907 86.4 63.3074 85.9167 61.6407 84.95C59.9741 83.95 58.6741 82.6 57.7407 80.9C56.8074 79.1667 56.3407 77.2667 56.3407 75.2C56.3407 72.9333 56.8407 70.9167 57.8407 69.15C58.8407 67.35 60.2074 65.95 61.9407 64.95C63.7074 63.95 65.6907 63.45 67.8907 63.45C69.5907 63.45 71.1074 63.85 72.4407 64.65C73.7741 65.45 74.8074 66.5667 75.5407 68C76.2741 69.4 76.6407 70.9833 76.6407 72.75C76.6407 73.1167 76.5407 73.4167 76.3407 73.65C76.1407 73.8833 75.8574 74 75.4907 74H62.6407V74.05C62.6407 76.7833 63.3241 78.9333 64.6907 80.5C66.0907 82.0333 67.8241 82.8 69.8907 82.8ZM67.5907 65C66.2574 65 65.1574 65.6333 64.2907 66.9C63.4574 68.1667 62.9407 69.8833 62.7407 72.05L70.1907 71.75C70.6574 71.75 70.8907 71.4 70.8907 70.7C70.8907 68.9667 70.5907 67.5833 69.9907 66.55C69.3907 65.5167 68.5907 65 67.5907 65ZM105.395 85.15V86H93.7447V85.15L95.3447 84.55C96.2447 84.1833 96.6947 83.5167 96.6947 82.55V72.1C96.6947 70.6333 96.3114 69.5167 95.5447 68.75C94.778 67.95 93.678 67.55 92.2447 67.55C90.8447 67.55 89.7447 67.9833 88.9447 68.85C88.1447 69.7167 87.7447 70.85 87.7447 72.25V82.9C87.7447 83.3333 87.878 83.6833 88.1447 83.95C88.4114 84.2167 88.728 84.4167 89.0947 84.55L90.6947 85.15V86H78.9947V85.15L80.6447 84.55C81.5447 84.1833 81.9947 83.5167 81.9947 82.55V68.3C81.9947 67.6333 81.878 67.1833 81.6447 66.95C81.4447 66.6833 81.1114 66.5 80.6447 66.4L78.9947 66V65.1C81.3947 64.7333 83.0947 64.45 84.0947 64.25C85.128 64.0167 86.2947 63.6667 87.5947 63.2L88.0947 63.6C87.6947 64.2667 87.4614 65.4 87.3947 67H87.6947C89.328 66.2333 91.3447 65.1667 93.7447 63.8C94.1114 63.5667 94.528 63.45 94.9947 63.45C97.3614 63.45 99.1947 64.0667 100.495 65.3C101.795 66.5 102.445 68.2167 102.445 70.45V82.9C102.445 83.3333 102.578 83.6833 102.845 83.95C103.111 84.2167 103.428 84.4167 103.795 84.55L105.395 85.15ZM117.765 86.4C115.665 86.4 113.782 85.9167 112.115 84.95C110.448 83.95 109.148 82.6 108.215 80.9C107.282 79.2 106.815 77.3167 106.815 75.25C106.815 72.9833 107.315 70.95 108.315 69.15C109.315 67.35 110.698 65.95 112.465 64.95C114.232 63.95 116.198 63.45 118.365 63.45C120.932 63.45 122.965 64.0167 124.465 65.15C125.965 66.25 126.715 67.7 126.715 69.5C126.715 70.5333 126.448 71.3167 125.915 71.85C125.415 72.35 124.765 72.6 123.965 72.6C123.065 72.6 122.348 72.3667 121.815 71.9C121.282 71.4 121.015 70.7333 121.015 69.9C121.015 69.3667 121.148 68.85 121.415 68.35C121.448 68.2833 121.515 68.15 121.615 67.95C121.715 67.7167 121.765 67.4667 121.765 67.2C121.765 66.5333 121.448 66 120.815 65.6C120.182 65.2 119.382 65 118.415 65C116.848 65 115.565 65.8333 114.565 67.5C113.598 69.1667 113.115 71.35 113.115 74.05C113.115 76.7833 113.798 78.9333 115.165 80.5C116.565 82.0333 118.298 82.8 120.365 82.8C122.365 82.8 124.332 81.95 126.265 80.25L127.115 81.05C124.515 84.6167 121.398 86.4 117.765 86.4ZM142.575 82.8C144.575 82.8 146.542 81.95 148.475 80.25L149.325 81.05C146.725 84.6167 143.608 86.4 139.975 86.4C137.875 86.4 135.992 85.9167 134.325 84.95C132.658 83.95 131.358 82.6 130.425 80.9C129.492 79.1667 129.025 77.2667 129.025 75.2C129.025 72.9333 129.525 70.9167 130.525 69.15C131.525 67.35 132.892 65.95 134.625 64.95C136.392 63.95 138.375 63.45 140.575 63.45C142.275 63.45 143.792 63.85 145.125 64.65C146.458 65.45 147.492 66.5667 148.225 68C148.958 69.4 149.325 70.9833 149.325 72.75C149.325 73.1167 149.225 73.4167 149.025 73.65C148.825 73.8833 148.542 74 148.175 74H135.325V74.05C135.325 76.7833 136.008 78.9333 137.375 80.5C138.775 82.0333 140.508 82.8 142.575 82.8ZM140.275 65C138.942 65 137.842 65.6333 136.975 66.9C136.142 68.1667 135.625 69.8833 135.425 72.05L142.875 71.75C143.342 71.75 143.575 71.4 143.575 70.7C143.575 68.9667 143.275 67.5833 142.675 66.55C142.075 65.5167 141.275 65 140.275 65ZM167.829 63.5C168.696 63.5 169.462 63.85 170.129 64.55C170.796 65.25 171.129 66.1 171.129 67.1C171.129 67.9333 170.796 68.6833 170.129 69.35C169.462 70.0167 168.629 70.35 167.629 70.35C166.629 70.35 165.696 69.8833 164.829 68.95C164.729 68.85 164.579 68.7 164.379 68.5C164.179 68.2667 163.979 68.1 163.779 68C163.579 67.8667 163.396 67.8 163.229 67.8C162.562 67.8 161.929 68.1833 161.329 68.95C160.729 69.7167 160.429 71.0667 160.429 73V82.9C160.429 83.2667 160.546 83.5833 160.779 83.85C161.046 84.1167 161.446 84.35 161.979 84.55L163.879 85.15V86H151.679V85.15L153.329 84.55C153.829 84.35 154.179 84.1 154.379 83.8C154.579 83.5 154.679 83.0833 154.679 82.55V68.3C154.679 67.6333 154.562 67.1833 154.329 66.95C154.129 66.6833 153.796 66.5 153.329 66.4L151.679 66V65.1C154.079 64.7333 155.779 64.45 156.779 64.25C157.812 64.0167 158.979 63.6667 160.279 63.2L160.779 63.6C160.312 64.3667 160.079 65.7167 160.079 67.65L165.479 64.25C166.346 63.75 167.129 63.5 167.829 63.5ZM206.531 83.5C207.097 83.5 207.797 83.35 208.631 83.05V84.3C207.764 84.8 206.814 85.2667 205.781 85.7C204.781 86.1 203.914 86.3 203.181 86.3C201.381 86.3 200.314 85.3333 199.981 83.4C197.447 85.3667 195.314 86.35 193.581 86.35C192.347 86.35 191.214 86.0167 190.181 85.35C189.181 84.6833 188.397 83.7833 187.831 82.65C187.264 81.5167 186.981 80.3167 186.981 79.05C186.981 78.45 187.031 78.0333 187.131 77.8C187.264 77.5333 187.464 77.35 187.731 77.25L197.981 73.4C198.581 73.1667 198.981 72.9167 199.181 72.65C199.381 72.3833 199.481 71.9833 199.481 71.45V69.65C199.481 68.1833 199.131 67.05 198.431 66.25C197.731 65.45 196.681 65.05 195.281 65.05C194.381 65.05 193.631 65.25 193.031 65.65C192.464 66.0167 192.181 66.45 192.181 66.95C192.181 67.2833 192.397 67.7333 192.831 68.3C193.431 69.0667 193.731 69.7667 193.731 70.4C193.731 71.2 193.447 71.8333 192.881 72.3C192.314 72.7333 191.581 72.95 190.681 72.95C189.814 72.95 189.131 72.7 188.631 72.2C188.131 71.7 187.881 71 187.881 70.1C187.881 68.9333 188.314 67.8333 189.181 66.8C190.047 65.7667 191.164 64.95 192.531 64.35C193.931 63.75 195.347 63.45 196.781 63.45C199.181 63.45 201.181 64.0333 202.781 65.2C204.414 66.3667 205.231 68.0833 205.231 70.35V81.15C205.231 81.95 205.314 82.55 205.481 82.95C205.647 83.3167 205.997 83.5 206.531 83.5ZM199.481 75.05C199.481 74.8167 199.381 74.75 199.181 74.85L193.131 77.05C192.931 77.1167 192.781 77.2667 192.681 77.5C192.614 77.7 192.581 78.05 192.581 78.55C192.581 79.7833 192.947 80.9 193.681 81.9C194.447 82.8667 195.331 83.35 196.331 83.35C196.764 83.35 197.164 83.2833 197.531 83.15C197.897 82.9833 198.347 82.7333 198.881 82.4C199.281 82.1333 199.481 81.65 199.481 80.95V75.05ZM236.603 85.15V86H224.953V85.15L226.553 84.55C227.453 84.1833 227.903 83.5167 227.903 82.55V72.1C227.903 70.6333 227.52 69.5167 226.753 68.75C225.986 67.95 224.886 67.55 223.453 67.55C222.053 67.55 220.953 67.9833 220.153 68.85C219.353 69.7167 218.953 70.85 218.953 72.25V82.9C218.953 83.3333 219.086 83.6833 219.353 83.95C219.62 84.2167 219.936 84.4167 220.303 84.55L221.903 85.15V86H210.203V85.15L211.853 84.55C212.753 84.1833 213.203 83.5167 213.203 82.55V68.3C213.203 67.6333 213.086 67.1833 212.853 66.95C212.653 66.6833 212.32 66.5 211.853 66.4L210.203 66V65.1C212.603 64.7333 214.303 64.45 215.303 64.25C216.336 64.0167 217.503 63.6667 218.803 63.2L219.303 63.6C218.903 64.2667 218.67 65.4 218.603 67H218.903C220.536 66.2333 222.553 65.1667 224.953 63.8C225.32 63.5667 225.736 63.45 226.203 63.45C228.57 63.45 230.403 64.0667 231.703 65.3C233.003 66.5 233.653 68.2167 233.653 70.45V82.9C233.653 83.3333 233.786 83.6833 234.053 83.95C234.32 84.2167 234.636 84.4167 235.003 84.55L236.603 85.15ZM248.923 86.4C246.557 86.4 244.54 85.9 242.873 84.9C241.24 83.9 240.023 82.5667 239.223 80.9C238.423 79.2 238.023 77.35 238.023 75.35C238.023 73.3167 238.44 71.4 239.273 69.6C240.107 67.8 241.357 66.3333 243.023 65.2C244.69 64.0667 246.723 63.5 249.123 63.5C250.19 63.5 251.223 63.6167 252.223 63.85C253.257 64.0833 254.14 64.3833 254.873 64.75V55.6C254.873 54.9333 254.757 54.4833 254.523 54.25C254.323 53.9833 253.99 53.8 253.523 53.7L251.873 53.3V52.4C254.007 52.1 255.69 51.8333 256.923 51.6C258.19 51.3667 259.49 51 260.823 50.5L261.323 50.9C260.857 51.6667 260.623 53.0833 260.623 55.15V81.25C260.623 82.35 260.907 83.1333 261.473 83.6C262.04 84.0667 262.99 84.2833 264.323 84.25V85.55C262.457 85.65 260.457 85.85 258.323 86.15L256.323 86.4L255.823 86.15L255.423 83.4H255.223L250.823 85.85C250.157 86.2167 249.523 86.4 248.923 86.4ZM250.523 82.9C251.823 82.9 252.873 82.4833 253.673 81.65C254.473 80.8167 254.873 79.7833 254.873 78.55V71.7C254.873 70.5333 254.64 69.45 254.173 68.45C253.707 67.45 253.073 66.6667 252.273 66.1C251.507 65.5 250.69 65.2 249.823 65.2C248.023 65.2 246.64 66 245.673 67.6C244.74 69.2 244.273 71.1667 244.273 73.5C244.273 76.1333 244.807 78.3667 245.873 80.2C246.94 82 248.49 82.9 250.523 82.9ZM279.811 84.9L282.411 84.35C283.211 84.1833 283.794 84.0167 284.161 83.85C284.527 83.65 284.777 83.3833 284.911 83.05C285.044 82.6833 285.111 82.1333 285.111 81.4V56.95C285.111 56.2167 285.044 55.6833 284.911 55.35C284.777 54.9833 284.527 54.7167 284.161 54.55C283.794 54.35 283.211 54.1667 282.411 54L279.811 53.45V52.35H297.311V53.45L294.761 54C293.927 54.1667 293.327 54.35 292.961 54.55C292.594 54.7167 292.344 54.9833 292.211 55.35C292.077 55.6833 292.011 56.2167 292.011 56.95V81.4C292.011 82.1333 292.077 82.6833 292.211 83.05C292.344 83.3833 292.594 83.65 292.961 83.85C293.327 84.0167 293.927 84.1833 294.761 84.35L297.311 84.9V86H279.811V84.9ZM0.5 135.15L2.15 134.55C3.05 134.183 3.5 133.517 3.5 132.55V105.6C3.5 104.933 3.38333 104.483 3.15 104.25C2.95 103.983 2.61667 103.8 2.15 103.7L0.5 103.3V102.4C2.63333 102.1 4.31667 101.833 5.55 101.6C6.81667 101.367 8.11667 101 9.45 100.5L9.95 100.9C9.48333 101.6 9.25 103.017 9.25 105.15V132.9C9.25 133.333 9.38333 133.683 9.65 133.95C9.91667 134.217 10.2333 134.417 10.6 134.55L12.2 135.15V136H0.5V135.15ZM24.3348 136.4C22.1348 136.4 20.1848 135.917 18.4848 134.95C16.7848 133.95 15.4682 132.6 14.5348 130.9C13.6015 129.167 13.1348 127.233 13.1348 125.1C13.1348 122.867 13.6015 120.867 14.5348 119.1C15.4682 117.333 16.7848 115.967 18.4848 115C20.1848 114 22.1348 113.5 24.3348 113.5C26.5682 113.5 28.5348 114 30.2348 115C31.9348 115.967 33.2515 117.3 34.1848 119C35.1182 120.7 35.5848 122.6 35.5848 124.7C35.5848 126.967 35.1182 128.983 34.1848 130.75C33.2515 132.517 31.9348 133.9 30.2348 134.9C28.5348 135.9 26.5682 136.4 24.3348 136.4ZM24.3848 134.8C27.6848 134.8 29.3348 131.617 29.3348 125.25C29.3348 121.883 28.9015 119.35 28.0348 117.65C27.2015 115.917 25.9515 115.05 24.2848 115.05C21.0515 115.05 19.4348 118.217 19.4348 124.55C19.4348 131.383 21.0848 134.8 24.3848 134.8ZM60.9177 113.95V114.8L58.8677 115.35C58.4344 115.483 58.1177 115.633 57.9177 115.8C57.7177 115.933 57.551 116.167 57.4177 116.5L48.8677 136.4H47.4177L38.4677 116.2C38.3344 115.9 38.151 115.683 37.9177 115.55C37.7177 115.383 37.401 115.25 36.9677 115.15L35.4177 114.8V113.95H47.7177V114.8L46.5677 115.05C46.0677 115.183 45.6844 115.367 45.4177 115.6C45.151 115.8 45.0177 116.083 45.0177 116.45C45.0177 116.65 45.0677 116.9 45.1677 117.2L50.1177 128.9L54.9177 116.75C55.051 116.35 55.1177 116.117 55.1177 116.05C55.1177 115.617 54.751 115.333 54.0177 115.2L51.7677 114.8V113.95H60.9177ZM74.2783 132.8C76.2783 132.8 78.245 131.95 80.1783 130.25L81.0283 131.05C78.4283 134.617 75.3116 136.4 71.6783 136.4C69.5783 136.4 67.695 135.917 66.0283 134.95C64.3616 133.95 63.0616 132.6 62.1283 130.9C61.195 129.167 60.7283 127.267 60.7283 125.2C60.7283 122.933 61.2283 120.917 62.2283 119.15C63.2283 117.35 64.595 115.95 66.3283 114.95C68.095 113.95 70.0783 113.45 72.2783 113.45C73.9783 113.45 75.495 113.85 76.8283 114.65C78.1616 115.45 79.195 116.567 79.9283 118C80.6616 119.4 81.0283 120.983 81.0283 122.75C81.0283 123.117 80.9283 123.417 80.7283 123.65C80.5283 123.883 80.245 124 79.8783 124H67.0283V124.05C67.0283 126.783 67.7116 128.933 69.0783 130.5C70.4783 132.033 72.2116 132.8 74.2783 132.8ZM71.9783 115C70.645 115 69.545 115.633 68.6783 116.9C67.845 118.167 67.3283 119.883 67.1283 122.05L74.5783 121.75C75.045 121.75 75.2783 121.4 75.2783 120.7C75.2783 118.967 74.9783 117.583 74.3783 116.55C73.7783 115.517 72.9783 115 71.9783 115ZM99.6448 136.45V105.6C99.6448 104.933 99.5281 104.483 99.2948 104.25C99.0948 103.983 98.7615 103.8 98.2948 103.7L96.6448 103.3V102.4C98.7781 102.1 100.461 101.833 101.695 101.6C102.961 101.367 104.261 101 105.595 100.5L106.095 100.9C105.628 101.6 105.395 103.017 105.395 105.15V116.35L109.395 114.1C110.061 113.733 110.695 113.55 111.295 113.55C113.695 113.55 115.711 114.05 117.345 115.05C119.011 116.05 120.245 117.383 121.045 119.05C121.845 120.717 122.245 122.55 122.245 124.55C122.245 126.583 121.795 128.517 120.895 130.35C120.028 132.15 118.711 133.617 116.945 134.75C115.178 135.883 113.011 136.45 110.445 136.45C109.045 136.45 107.645 136.183 106.245 135.65C104.878 135.117 103.745 134.433 102.845 133.6C102.145 134.333 101.411 135.333 100.645 136.6L99.6448 136.45ZM110.445 134.7C112.245 134.7 113.611 133.9 114.545 132.3C115.478 130.7 115.945 128.75 115.945 126.45C115.945 123.817 115.411 121.6 114.345 119.8C113.311 117.967 111.778 117.05 109.745 117.05C108.411 117.05 107.345 117.467 106.545 118.3C105.778 119.133 105.395 120.167 105.395 121.4V128.25C105.395 129.383 105.628 130.45 106.095 131.45C106.561 132.45 107.178 133.25 107.945 133.85C108.711 134.417 109.545 134.7 110.445 134.7ZM146.48 131.25C146.48 132.35 146.764 133.133 147.33 133.6C147.897 134.067 148.847 134.283 150.18 134.25V135.55C148.314 135.65 146.314 135.85 144.18 136.15L142.18 136.4L141.68 136.15L141.18 132.85H140.78C138.98 133.583 136.864 134.683 134.43 136.15C134.164 136.317 133.914 136.4 133.68 136.4C131.414 136.4 129.647 135.8 128.38 134.6C127.147 133.4 126.53 131.683 126.53 129.45V117.65C126.53 116.983 126.414 116.517 126.18 116.25C125.98 115.983 125.647 115.783 125.18 115.65L123.53 115.25V114.35C125.497 114.217 127.08 114.067 128.28 113.9C129.48 113.733 130.864 113.467 132.43 113.1L132.93 113.5C132.73 113.867 132.564 114.433 132.43 115.2C132.33 115.967 132.28 116.783 132.28 117.65V127.65C132.28 129.117 132.63 130.25 133.33 131.05C134.064 131.85 135.097 132.25 136.43 132.25C137.764 132.25 138.814 131.833 139.58 131C140.347 130.167 140.73 129.05 140.73 127.65V117.65C140.73 116.983 140.614 116.517 140.38 116.25C140.18 115.983 139.847 115.783 139.38 115.65L137.78 115.25V114.35C139.747 114.217 141.33 114.067 142.53 113.9C143.73 113.733 145.114 113.467 146.68 113.1L147.18 113.5C146.947 113.867 146.764 114.433 146.63 115.2C146.53 115.933 146.48 116.75 146.48 117.65V131.25ZM152.746 135.15L154.396 134.55C155.296 134.183 155.746 133.517 155.746 132.55V118.3C155.746 117.633 155.629 117.183 155.396 116.95C155.196 116.683 154.863 116.5 154.396 116.4L152.746 116V115.1C154.913 114.8 156.613 114.533 157.846 114.3C159.079 114.067 160.363 113.7 161.696 113.2L162.146 113.6C161.713 114.333 161.496 115.733 161.496 117.8V132.9C161.496 133.333 161.629 133.683 161.896 133.95C162.163 134.217 162.463 134.417 162.796 134.55L164.446 135.15V136H152.746V135.15ZM158.496 108.7C157.496 108.7 156.629 108.35 155.896 107.65C155.196 106.95 154.846 106.083 154.846 105.05C154.846 104.017 155.196 103.15 155.896 102.45C156.629 101.75 157.496 101.4 158.496 101.4C159.529 101.4 160.396 101.75 161.096 102.45C161.829 103.15 162.196 104.017 162.196 105.05C162.196 106.083 161.829 106.95 161.096 107.65C160.396 108.35 159.529 108.7 158.496 108.7ZM165.532 135.15L167.182 134.55C168.082 134.183 168.532 133.517 168.532 132.55V105.6C168.532 104.933 168.415 104.483 168.182 104.25C167.982 103.983 167.649 103.8 167.182 103.7L165.532 103.3V102.4C167.665 102.1 169.349 101.833 170.582 101.6C171.849 101.367 173.149 101 174.482 100.5L174.982 100.9C174.515 101.6 174.282 103.017 174.282 105.15V132.9C174.282 133.333 174.415 133.683 174.682 133.95C174.949 134.217 175.265 134.417 175.632 134.55L177.232 135.15V136H165.532V135.15ZM189.067 136.4C186.7 136.4 184.684 135.9 183.017 134.9C181.384 133.9 180.167 132.567 179.367 130.9C178.567 129.2 178.167 127.35 178.167 125.35C178.167 123.317 178.584 121.4 179.417 119.6C180.25 117.8 181.5 116.333 183.167 115.2C184.834 114.067 186.867 113.5 189.267 113.5C190.334 113.5 191.367 113.617 192.367 113.85C193.4 114.083 194.284 114.383 195.017 114.75V105.6C195.017 104.933 194.9 104.483 194.667 104.25C194.467 103.983 194.134 103.8 193.667 103.7L192.017 103.3V102.4C194.15 102.1 195.834 101.833 197.067 101.6C198.334 101.367 199.634 101 200.967 100.5L201.467 100.9C201 101.667 200.767 103.083 200.767 105.15V131.25C200.767 132.35 201.05 133.133 201.617 133.6C202.184 134.067 203.134 134.283 204.467 134.25V135.55C202.6 135.65 200.6 135.85 198.467 136.15L196.467 136.4L195.967 136.15L195.567 133.4H195.367L190.967 135.85C190.3 136.217 189.667 136.4 189.067 136.4ZM190.667 132.9C191.967 132.9 193.017 132.483 193.817 131.65C194.617 130.817 195.017 129.783 195.017 128.55V121.7C195.017 120.533 194.784 119.45 194.317 118.45C193.85 117.45 193.217 116.667 192.417 116.1C191.65 115.5 190.834 115.2 189.967 115.2C188.167 115.2 186.784 116 185.817 117.6C184.884 119.2 184.417 121.167 184.417 123.5C184.417 126.133 184.95 128.367 186.017 130.2C187.084 132 188.634 132.9 190.667 132.9ZM206.192 135.15L207.842 134.55C208.742 134.183 209.192 133.517 209.192 132.55V118.3C209.192 117.633 209.075 117.183 208.842 116.95C208.642 116.683 208.309 116.5 207.842 116.4L206.192 116V115.1C208.359 114.8 210.059 114.533 211.292 114.3C212.525 114.067 213.809 113.7 215.142 113.2L215.592 113.6C215.159 114.333 214.942 115.733 214.942 117.8V132.9C214.942 133.333 215.075 133.683 215.342 133.95C215.609 134.217 215.909 134.417 216.242 134.55L217.892 135.15V136H206.192V135.15ZM211.942 108.7C210.942 108.7 210.075 108.35 209.342 107.65C208.642 106.95 208.292 106.083 208.292 105.05C208.292 104.017 208.642 103.15 209.342 102.45C210.075 101.75 210.942 101.4 211.942 101.4C212.975 101.4 213.842 101.75 214.542 102.45C215.275 103.15 215.642 104.017 215.642 105.05C215.642 106.083 215.275 106.95 214.542 107.65C213.842 108.35 212.975 108.7 211.942 108.7ZM246.11 135.15V136H234.46V135.15L236.06 134.55C236.96 134.183 237.41 133.517 237.41 132.55V122.1C237.41 120.633 237.027 119.517 236.26 118.75C235.494 117.95 234.394 117.55 232.96 117.55C231.56 117.55 230.46 117.983 229.66 118.85C228.86 119.717 228.46 120.85 228.46 122.25V132.9C228.46 133.333 228.594 133.683 228.86 133.95C229.127 134.217 229.444 134.417 229.81 134.55L231.41 135.15V136H219.71V135.15L221.36 134.55C222.26 134.183 222.71 133.517 222.71 132.55V118.3C222.71 117.633 222.594 117.183 222.36 116.95C222.16 116.683 221.827 116.5 221.36 116.4L219.71 116V115.1C222.11 114.733 223.81 114.45 224.81 114.25C225.844 114.017 227.01 113.667 228.31 113.2L228.81 113.6C228.41 114.267 228.177 115.4 228.11 117H228.41C230.044 116.233 232.06 115.167 234.46 113.8C234.827 113.567 235.244 113.45 235.71 113.45C238.077 113.45 239.91 114.067 241.21 115.3C242.51 116.5 243.16 118.217 243.16 120.45V132.9C243.16 133.333 243.294 133.683 243.56 133.95C243.827 134.217 244.144 134.417 244.51 134.55L246.11 135.15ZM262.531 132.7C265.264 132.7 267.547 133.25 269.381 134.35C271.214 135.45 272.131 137.217 272.131 139.65C272.131 142.683 270.814 145 268.181 146.6C265.581 148.2 262.214 149 258.081 149C255.047 149 252.481 148.517 250.381 147.55C248.281 146.583 247.231 145.167 247.231 143.3C247.231 141.967 247.864 140.817 249.131 139.85C250.431 138.883 251.981 138.267 253.781 138C252.114 137.733 250.781 137.217 249.781 136.45C248.814 135.717 248.331 134.75 248.331 133.55C248.331 133.383 248.447 133.2 248.681 133C250.214 131.933 251.681 130.45 253.081 128.55V128.3C251.747 127.567 250.714 126.583 249.981 125.35C249.281 124.083 248.931 122.8 248.931 121.5C248.931 119.133 249.764 117.217 251.431 115.75C253.131 114.25 255.331 113.5 258.031 113.5C258.864 113.5 259.647 113.583 260.381 113.75C261.147 113.917 262.014 114.167 262.981 114.5C263.581 114.7 264.197 114.883 264.831 115.05C265.464 115.217 266.031 115.3 266.531 115.3C267.464 115.3 267.931 115 267.931 114.4C267.931 113.9 267.731 113.35 267.331 112.75C266.931 112.183 266.731 111.617 266.731 111.05C266.731 110.383 266.931 109.883 267.331 109.55C267.731 109.183 268.231 109 268.831 109C269.597 109 270.197 109.3 270.631 109.9C271.097 110.467 271.331 111.183 271.331 112.05C271.331 113.85 270.997 115.183 270.331 116.05C269.664 116.883 268.781 117.3 267.681 117.3C266.981 117.3 266.297 117.133 265.631 116.8V117.1C266.131 117.967 266.481 118.75 266.681 119.45C266.881 120.117 266.981 120.9 266.981 121.8C266.981 123.2 266.631 124.483 265.931 125.65C265.231 126.817 264.214 127.75 262.881 128.45C261.581 129.117 260.047 129.45 258.281 129.45C256.747 129.45 255.531 129.633 254.631 130C253.731 130.333 253.281 130.767 253.281 131.3C253.281 131.8 253.531 132.2 254.031 132.5C254.564 132.767 255.264 132.9 256.131 132.9L258.781 132.8C260.447 132.733 261.697 132.7 262.531 132.7ZM258.031 115.3C255.964 115.3 254.931 117.233 254.931 121.1C254.931 125.4 256.031 127.55 258.231 127.55C259.231 127.55 259.997 127.067 260.531 126.1C261.064 125.1 261.331 123.6 261.331 121.6C261.331 119.533 261.047 117.967 260.481 116.9C259.914 115.833 259.097 115.3 258.031 115.3ZM259.981 146.5C262.447 146.5 264.447 146.1 265.981 145.3C267.547 144.533 268.331 143.45 268.331 142.05C268.331 140.783 267.747 139.783 266.581 139.05C265.447 138.35 263.947 138 262.081 138C261.414 138 260.414 138.033 259.081 138.1C258.147 138.167 257.464 138.2 257.031 138.2H257.081C254.114 138.667 252.631 139.95 252.631 142.05C252.631 143.25 253.264 144.283 254.531 145.15C255.831 146.05 257.647 146.5 259.981 146.5ZM3 186.45V155.6C3 154.933 2.88333 154.483 2.65 154.25C2.45 153.983 2.11667 153.8 1.65 153.7L7.07805e-08 153.3V152.4C2.13333 152.1 3.81667 151.833 5.05 151.6C6.31667 151.367 7.61667 151 8.95 150.5L9.45 150.9C8.98333 151.6 8.75 153.017 8.75 155.15V166.35L12.75 164.1C13.4167 163.733 14.05 163.55 14.65 163.55C17.05 163.55 19.0667 164.05 20.7 165.05C22.3667 166.05 23.6 167.383 24.4 169.05C25.2 170.717 25.6 172.55 25.6 174.55C25.6 176.583 25.15 178.517 24.25 180.35C23.3833 182.15 22.0667 183.617 20.3 184.75C18.5333 185.883 16.3667 186.45 13.8 186.45C12.4 186.45 11 186.183 9.6 185.65C8.23333 185.117 7.1 184.433 6.2 183.6C5.5 184.333 4.76667 185.333 4 186.6L3 186.45ZM13.8 184.7C15.6 184.7 16.9667 183.9 17.9 182.3C18.8333 180.7 19.3 178.75 19.3 176.45C19.3 173.817 18.7667 171.6 17.7 169.8C16.6667 167.967 15.1333 167.05 13.1 167.05C11.7667 167.05 10.7 167.467 9.9 168.3C9.13333 169.133 8.75 170.167 8.75 171.4V178.25C8.75 179.383 8.98333 180.45 9.45 181.45C9.91667 182.45 10.5333 183.25 11.3 183.85C12.0667 184.417 12.9 184.7 13.8 184.7ZM41.7239 182.8C43.7239 182.8 45.6906 181.95 47.6239 180.25L48.4739 181.05C45.8739 184.617 42.7572 186.4 39.1239 186.4C37.0239 186.4 35.1406 185.917 33.4739 184.95C31.8072 183.95 30.5072 182.6 29.5739 180.9C28.6406 179.167 28.1739 177.267 28.1739 175.2C28.1739 172.933 28.6739 170.917 29.6739 169.15C30.6739 167.35 32.0406 165.95 33.7739 164.95C35.5406 163.95 37.5239 163.45 39.7239 163.45C41.4239 163.45 42.9406 163.85 44.2739 164.65C45.6072 165.45 46.6406 166.567 47.3739 168C48.1072 169.4 48.4739 170.983 48.4739 172.75C48.4739 173.117 48.3739 173.417 48.1739 173.65C47.9739 173.883 47.6906 174 47.3239 174H34.4739V174.05C34.4739 176.783 35.1572 178.933 36.5239 180.5C37.9239 182.033 39.6572 182.8 41.7239 182.8ZM39.4239 165C38.0906 165 36.9906 165.633 36.1239 166.9C35.2906 168.167 34.7739 169.883 34.5739 172.05L42.0239 171.75C42.4906 171.75 42.7239 171.4 42.7239 170.7C42.7239 168.967 42.4239 167.583 41.8239 166.55C41.2239 165.517 40.4239 165 39.4239 165ZM70.9278 183.5C71.4945 183.5 72.1945 183.35 73.0278 183.05V184.3C72.1612 184.8 71.2112 185.267 70.1778 185.7C69.1778 186.1 68.3112 186.3 67.5778 186.3C65.7778 186.3 64.7112 185.333 64.3778 183.4C61.8445 185.367 59.7112 186.35 57.9778 186.35C56.7445 186.35 55.6112 186.017 54.5778 185.35C53.5778 184.683 52.7945 183.783 52.2278 182.65C51.6612 181.517 51.3778 180.317 51.3778 179.05C51.3778 178.45 51.4278 178.033 51.5278 177.8C51.6612 177.533 51.8612 177.35 52.1278 177.25L62.3778 173.4C62.9778 173.167 63.3778 172.917 63.5778 172.65C63.7778 172.383 63.8778 171.983 63.8778 171.45V169.65C63.8778 168.183 63.5278 167.05 62.8278 166.25C62.1278 165.45 61.0778 165.05 59.6778 165.05C58.7778 165.05 58.0278 165.25 57.4278 165.65C56.8612 166.017 56.5778 166.45 56.5778 166.95C56.5778 167.283 56.7945 167.733 57.2278 168.3C57.8278 169.067 58.1278 169.767 58.1278 170.4C58.1278 171.2 57.8445 171.833 57.2778 172.3C56.7112 172.733 55.9778 172.95 55.0778 172.95C54.2112 172.95 53.5278 172.7 53.0278 172.2C52.5278 171.7 52.2778 171 52.2778 170.1C52.2778 168.933 52.7112 167.833 53.5778 166.8C54.4445 165.767 55.5612 164.95 56.9278 164.35C58.3278 163.75 59.7445 163.45 61.1778 163.45C63.5778 163.45 65.5778 164.033 67.1778 165.2C68.8112 166.367 69.6278 168.083 69.6278 170.35V181.15C69.6278 181.95 69.7112 182.55 69.8778 182.95C70.0445 183.317 70.3945 183.5 70.9278 183.5ZM63.8778 175.05C63.8778 174.817 63.7778 174.75 63.5778 174.85L57.5278 177.05C57.3278 177.117 57.1778 177.267 57.0778 177.5C57.0112 177.7 56.9778 178.05 56.9778 178.55C56.9778 179.783 57.3445 180.9 58.0778 181.9C58.8445 182.867 59.7278 183.35 60.7278 183.35C61.1612 183.35 61.5612 183.283 61.9278 183.15C62.2945 182.983 62.7445 182.733 63.2778 182.4C63.6778 182.133 63.8778 181.65 63.8778 180.95V175.05ZM96.5502 181.25C96.5502 182.35 96.8335 183.133 97.4002 183.6C97.9668 184.067 98.9168 184.283 100.25 184.25V185.55C98.3835 185.65 96.3835 185.85 94.2502 186.15L92.2502 186.4L91.7502 186.15L91.2502 182.85H90.8502C89.0502 183.583 86.9335 184.683 84.5002 186.15C84.2335 186.317 83.9835 186.4 83.7502 186.4C81.4835 186.4 79.7168 185.8 78.4502 184.6C77.2168 183.4 76.6002 181.683 76.6002 179.45V167.65C76.6002 166.983 76.4835 166.517 76.2502 166.25C76.0502 165.983 75.7168 165.783 75.2502 165.65L73.6002 165.25V164.35C75.5668 164.217 77.1502 164.067 78.3502 163.9C79.5502 163.733 80.9335 163.467 82.5002 163.1L83.0002 163.5C82.8002 163.867 82.6335 164.433 82.5002 165.2C82.4002 165.967 82.3502 166.783 82.3502 167.65V177.65C82.3502 179.117 82.7002 180.25 83.4002 181.05C84.1335 181.85 85.1668 182.25 86.5002 182.25C87.8335 182.25 88.8835 181.833 89.6502 181C90.4168 180.167 90.8002 179.05 90.8002 177.65V167.65C90.8002 166.983 90.6835 166.517 90.4502 166.25C90.2502 165.983 89.9168 165.783 89.4502 165.65L87.8502 165.25V164.35C89.8168 164.217 91.4002 164.067 92.6002 163.9C93.8002 163.733 95.1835 163.467 96.7502 163.1L97.2502 163.5C97.0168 163.867 96.8335 164.433 96.7002 165.2C96.6002 165.933 96.5502 166.75 96.5502 167.65V181.25ZM110.516 186.4C108.849 186.4 107.599 185.9 106.766 184.9C105.933 183.9 105.516 182.383 105.516 180.35V165.55H102.316V164.25C104.583 163.917 106.316 163.15 107.516 161.95C108.749 160.717 109.583 158.95 110.016 156.65H111.266V163.95H117.066L116.566 165.55H111.266V179.95C111.266 181.15 111.449 181.983 111.816 182.45C112.183 182.917 112.733 183.15 113.466 183.15C114.399 183.15 115.566 182.733 116.966 181.9L117.666 183.15C116.366 184.183 115.083 184.983 113.816 185.55C112.549 186.117 111.449 186.4 110.516 186.4ZM120.241 185.15L121.891 184.55C122.791 184.183 123.241 183.517 123.241 182.55V168.3C123.241 167.633 123.124 167.183 122.891 166.95C122.691 166.683 122.357 166.5 121.891 166.4L120.241 166V165.1C122.407 164.8 124.107 164.533 125.341 164.3C126.574 164.067 127.857 163.7 129.191 163.2L129.641 163.6C129.207 164.333 128.991 165.733 128.991 167.8V182.9C128.991 183.333 129.124 183.683 129.391 183.95C129.657 184.217 129.957 184.417 130.291 184.55L131.941 185.15V186H120.241V185.15ZM125.991 158.7C124.991 158.7 124.124 158.35 123.391 157.65C122.691 156.95 122.341 156.083 122.341 155.05C122.341 154.017 122.691 153.15 123.391 152.45C124.124 151.75 124.991 151.4 125.991 151.4C127.024 151.4 127.891 151.75 128.591 152.45C129.324 153.15 129.691 154.017 129.691 155.05C129.691 156.083 129.324 156.95 128.591 157.65C127.891 158.35 127.024 158.7 125.991 158.7ZM133.759 185.15L135.409 184.55C135.909 184.35 136.259 184.1 136.459 183.8C136.659 183.5 136.759 183.083 136.759 182.55V165.55H133.509V163.95H136.759V161.55C136.759 157.583 137.659 154.75 139.459 153.05C141.259 151.317 143.826 150.45 147.159 150.45C149.059 150.45 150.592 150.833 151.759 151.6C152.959 152.333 153.559 153.333 153.559 154.6C153.559 155.533 153.292 156.267 152.759 156.8C152.259 157.333 151.609 157.6 150.809 157.6C149.942 157.6 149.226 157.367 148.659 156.9C148.126 156.4 147.859 155.717 147.859 154.85C147.859 154.383 148.009 153.933 148.309 153.5C148.342 153.433 148.409 153.317 148.509 153.15C148.609 152.983 148.659 152.817 148.659 152.65C148.659 152.083 148.042 151.8 146.809 151.8C145.309 151.8 144.226 152.567 143.559 154.1C142.892 155.633 142.559 158.2 142.559 161.8V163.95H148.309L147.809 165.55H142.559V182.9C142.559 183.733 143.076 184.283 144.109 184.55L146.309 185.15V186H133.759V185.15ZM173.036 181.25C173.036 182.35 173.319 183.133 173.886 183.6C174.453 184.067 175.403 184.283 176.736 184.25V185.55C174.869 185.65 172.869 185.85 170.736 186.15L168.736 186.4L168.236 186.15L167.736 182.85H167.336C165.536 183.583 163.419 184.683 160.986 186.15C160.719 186.317 160.469 186.4 160.236 186.4C157.969 186.4 156.203 185.8 154.936 184.6C153.703 183.4 153.086 181.683 153.086 179.45V167.65C153.086 166.983 152.969 166.517 152.736 166.25C152.536 165.983 152.203 165.783 151.736 165.65L150.086 165.25V164.35C152.053 164.217 153.636 164.067 154.836 163.9C156.036 163.733 157.419 163.467 158.986 163.1L159.486 163.5C159.286 163.867 159.119 164.433 158.986 165.2C158.886 165.967 158.836 166.783 158.836 167.65V177.65C158.836 179.117 159.186 180.25 159.886 181.05C160.619 181.85 161.653 182.25 162.986 182.25C164.319 182.25 165.369 181.833 166.136 181C166.903 180.167 167.286 179.05 167.286 177.65V167.65C167.286 166.983 167.169 166.517 166.936 166.25C166.736 165.983 166.403 165.783 165.936 165.65L164.336 165.25V164.35C166.303 164.217 167.886 164.067 169.086 163.9C170.286 163.733 171.669 163.467 173.236 163.1L173.736 163.5C173.503 163.867 173.319 164.433 173.186 165.2C173.086 165.933 173.036 166.75 173.036 167.65V181.25ZM178.569 185.15L180.219 184.55C181.119 184.183 181.569 183.517 181.569 182.55V155.6C181.569 154.933 181.453 154.483 181.219 154.25C181.019 153.983 180.686 153.8 180.219 153.7L178.569 153.3V152.4C180.703 152.1 182.386 151.833 183.619 151.6C184.886 151.367 186.186 151 187.519 150.5L188.019 150.9C187.553 151.6 187.319 153.017 187.319 155.15V182.9C187.319 183.333 187.453 183.683 187.719 183.95C187.986 184.217 188.303 184.417 188.669 184.55L190.269 185.15V186H178.569V185.15ZM207.849 166.2C207.716 165.9 207.532 165.683 207.299 165.55C207.099 165.383 206.782 165.25 206.349 165.15L204.799 164.8V163.95H217.099V164.8L215.599 165.2C214.799 165.4 214.399 165.8 214.399 166.4C214.399 166.633 214.449 166.9 214.549 167.2L218.949 178.7L223.299 166.75C223.432 166.35 223.499 166.117 223.499 166.05C223.499 165.617 223.132 165.333 222.399 165.2L220.149 164.8V163.95H229.699V164.8L227.549 165.2C227.016 165.333 226.749 165.6 226.749 166C226.749 166.2 226.832 166.517 226.999 166.95L231.549 178.7L235.849 166.75C235.982 166.483 236.049 166.25 236.049 166.05C236.049 165.617 235.699 165.333 234.999 165.2L232.699 164.8V163.95H241.849V164.8L239.799 165.35C239.366 165.483 239.049 165.633 238.849 165.8C238.649 165.933 238.482 166.167 238.349 166.5L230.299 186.4H228.849L223.199 172.85L217.749 186.4H216.299L207.849 166.2ZM255.375 182.8C257.375 182.8 259.341 181.95 261.275 180.25L262.125 181.05C259.525 184.617 256.408 186.4 252.775 186.4C250.675 186.4 248.791 185.917 247.125 184.95C245.458 183.95 244.158 182.6 243.225 180.9C242.291 179.167 241.825 177.267 241.825 175.2C241.825 172.933 242.325 170.917 243.325 169.15C244.325 167.35 245.691 165.95 247.425 164.95C249.191 163.95 251.175 163.45 253.375 163.45C255.075 163.45 256.591 163.85 257.925 164.65C259.258 165.45 260.291 166.567 261.025 168C261.758 169.4 262.125 170.983 262.125 172.75C262.125 173.117 262.025 173.417 261.825 173.65C261.625 173.883 261.341 174 260.975 174H248.125V174.05C248.125 176.783 248.808 178.933 250.175 180.5C251.575 182.033 253.308 182.8 255.375 182.8ZM253.075 165C251.741 165 250.641 165.633 249.775 166.9C248.941 168.167 248.425 169.883 248.225 172.05L255.675 171.75C256.141 171.75 256.375 171.4 256.375 170.7C256.375 168.967 256.075 167.583 255.475 166.55C254.875 165.517 254.075 165 253.075 165ZM266.246 186.45V155.6C266.246 154.933 266.13 154.483 265.896 154.25C265.696 153.983 265.363 153.8 264.896 153.7L263.246 153.3V152.4C265.38 152.1 267.063 151.833 268.296 151.6C269.563 151.367 270.863 151 272.196 150.5L272.696 150.9C272.23 151.6 271.996 153.017 271.996 155.15V166.35L275.996 164.1C276.663 163.733 277.296 163.55 277.896 163.55C280.296 163.55 282.313 164.05 283.946 165.05C285.613 166.05 286.846 167.383 287.646 169.05C288.446 170.717 288.846 172.55 288.846 174.55C288.846 176.583 288.396 178.517 287.496 180.35C286.63 182.15 285.313 183.617 283.546 184.75C281.78 185.883 279.613 186.45 277.046 186.45C275.646 186.45 274.246 186.183 272.846 185.65C271.48 185.117 270.346 184.433 269.446 183.6C268.746 184.333 268.013 185.333 267.246 186.6L266.246 186.45ZM277.046 184.7C278.846 184.7 280.213 183.9 281.146 182.3C282.08 180.7 282.546 178.75 282.546 176.45C282.546 173.817 282.013 171.6 280.946 169.8C279.913 167.967 278.38 167.05 276.346 167.05C275.013 167.05 273.946 167.467 273.146 168.3C272.38 169.133 271.996 170.167 271.996 171.4V178.25C271.996 179.383 272.23 180.45 272.696 181.45C273.163 182.45 273.78 183.25 274.546 183.85C275.313 184.417 276.146 184.7 277.046 184.7ZM299.732 186.4C298.265 186.4 296.832 186.183 295.432 185.75C294.065 185.317 292.882 184.833 291.882 184.3C291.949 183.167 291.982 182.217 291.982 181.45C291.982 179.85 291.865 178.583 291.632 177.65H293.532C293.832 179.717 294.565 181.433 295.732 182.8C296.899 184.167 298.332 184.85 300.032 184.85C301.032 184.85 301.849 184.567 302.482 184C303.115 183.433 303.432 182.65 303.432 181.65C303.432 180.817 303.282 180.15 302.982 179.65C302.682 179.15 302.149 178.683 301.382 178.25C300.649 177.817 299.515 177.3 297.982 176.7C295.949 175.9 294.482 174.967 293.582 173.9C292.715 172.833 292.282 171.417 292.282 169.65C292.282 168.55 292.615 167.533 293.282 166.6C293.982 165.633 294.949 164.867 296.182 164.3C297.415 163.733 298.815 163.45 300.382 163.45C301.382 163.45 302.215 163.533 302.882 163.7C303.549 163.867 304.349 164.15 305.282 164.55H306.532C306.465 165.55 306.432 166.217 306.432 166.55C306.432 167.783 306.582 169.15 306.882 170.65H305.432C304.932 168.783 304.199 167.367 303.232 166.4C302.299 165.4 301.165 164.9 299.832 164.9C298.932 164.9 298.199 165.167 297.632 165.7C297.099 166.233 296.832 166.917 296.832 167.75C296.832 168.55 296.982 169.2 297.282 169.7C297.615 170.2 298.132 170.633 298.832 171C299.532 171.333 300.582 171.733 301.982 172.2C304.015 172.933 305.532 173.833 306.532 174.9C307.565 175.967 308.082 177.483 308.082 179.45C308.082 180.65 307.765 181.783 307.132 182.85C306.532 183.917 305.599 184.783 304.332 185.45C303.065 186.083 301.532 186.4 299.732 186.4ZM311.145 185.15L312.795 184.55C313.695 184.183 314.145 183.517 314.145 182.55V168.3C314.145 167.633 314.028 167.183 313.795 166.95C313.595 166.683 313.261 166.5 312.795 166.4L311.145 166V165.1C313.311 164.8 315.011 164.533 316.245 164.3C317.478 164.067 318.761 163.7 320.095 163.2L320.545 163.6C320.111 164.333 319.895 165.733 319.895 167.8V182.9C319.895 183.333 320.028 183.683 320.295 183.95C320.561 184.217 320.861 184.417 321.195 184.55L322.845 185.15V186H311.145V185.15ZM316.895 158.7C315.895 158.7 315.028 158.35 314.295 157.65C313.595 156.95 313.245 156.083 313.245 155.05C313.245 154.017 313.595 153.15 314.295 152.45C315.028 151.75 315.895 151.4 316.895 151.4C317.928 151.4 318.795 151.75 319.495 152.45C320.228 153.15 320.595 154.017 320.595 155.05C320.595 156.083 320.228 156.95 319.495 157.65C318.795 158.35 317.928 158.7 316.895 158.7ZM332.363 186.4C330.696 186.4 329.446 185.9 328.613 184.9C327.78 183.9 327.363 182.383 327.363 180.35V165.55H324.163V164.25C326.43 163.917 328.163 163.15 329.363 161.95C330.596 160.717 331.43 158.95 331.863 156.65H333.113V163.95H338.913L338.413 165.55H333.113V179.95C333.113 181.15 333.296 181.983 333.663 182.45C334.03 182.917 334.58 183.15 335.313 183.15C336.246 183.15 337.413 182.733 338.813 181.9L339.513 183.15C338.213 184.183 336.93 184.983 335.663 185.55C334.396 186.117 333.296 186.4 332.363 186.4ZM354.705 182.8C356.705 182.8 358.672 181.95 360.605 180.25L361.455 181.05C358.855 184.617 355.739 186.4 352.105 186.4C350.005 186.4 348.122 185.917 346.455 184.95C344.789 183.95 343.489 182.6 342.555 180.9C341.622 179.167 341.155 177.267 341.155 175.2C341.155 172.933 341.655 170.917 342.655 169.15C343.655 167.35 345.022 165.95 346.755 164.95C348.522 163.95 350.505 163.45 352.705 163.45C354.405 163.45 355.922 163.85 357.255 164.65C358.589 165.45 359.622 166.567 360.355 168C361.089 169.4 361.455 170.983 361.455 172.75C361.455 173.117 361.355 173.417 361.155 173.65C360.955 173.883 360.672 174 360.305 174H347.455V174.05C347.455 176.783 348.139 178.933 349.505 180.5C350.905 182.033 352.639 182.8 354.705 182.8ZM352.405 165C351.072 165 349.972 165.633 349.105 166.9C348.272 168.167 347.755 169.883 347.555 172.05L355.005 171.75C355.472 171.75 355.705 171.4 355.705 170.7C355.705 168.967 355.405 167.583 354.805 166.55C354.205 165.517 353.405 165 352.405 165ZM372.409 186.4C370.942 186.4 369.509 186.183 368.109 185.75C366.742 185.317 365.559 184.833 364.559 184.3C364.626 183.167 364.659 182.217 364.659 181.45C364.659 179.85 364.542 178.583 364.309 177.65H366.209C366.509 179.717 367.242 181.433 368.409 182.8C369.576 184.167 371.009 184.85 372.709 184.85C373.709 184.85 374.526 184.567 375.159 184C375.792 183.433 376.109 182.65 376.109 181.65C376.109 180.817 375.959 180.15 375.659 179.65C375.359 179.15 374.826 178.683 374.059 178.25C373.326 177.817 372.192 177.3 370.659 176.7C368.626 175.9 367.159 174.967 366.259 173.9C365.392 172.833 364.959 171.417 364.959 169.65C364.959 168.55 365.292 167.533 365.959 166.6C366.659 165.633 367.626 164.867 368.859 164.3C370.092 163.733 371.492 163.45 373.059 163.45C374.059 163.45 374.892 163.533 375.559 163.7C376.226 163.867 377.026 164.15 377.959 164.55H379.209C379.142 165.55 379.109 166.217 379.109 166.55C379.109 167.783 379.259 169.15 379.559 170.65H378.109C377.609 168.783 376.876 167.367 375.909 166.4C374.976 165.4 373.842 164.9 372.509 164.9C371.609 164.9 370.876 165.167 370.309 165.7C369.776 166.233 369.509 166.917 369.509 167.75C369.509 168.55 369.659 169.2 369.959 169.7C370.292 170.2 370.809 170.633 371.509 171C372.209 171.333 373.259 171.733 374.659 172.2C376.692 172.933 378.209 173.833 379.209 174.9C380.242 175.967 380.759 177.483 380.759 179.45C380.759 180.65 380.442 181.783 379.809 182.85C379.209 183.917 378.276 184.783 377.009 185.45C375.742 186.083 374.209 186.4 372.409 186.4Z" fill="#33323D"/>
</svg>
